<?xml version="1.0" standalone="no"?><!DOCTYPE svg PUBLIC "-//W3C//DTD SVG 1.1//EN" "http://www.w3.org/Graphics/SVG/1.1/DTD/svg11.dtd"><svg t="1700050785342" class="icon" viewBox="0 0 1024 1024" version="1.1" xmlns="http://www.w3.org/2000/svg" p-id="4061" xmlns:xlink="http://www.w3.org/1999/xlink" width="200" height="200"><path d="M754.57332 969.11c-10.65-17.66-6.08-40.55 10.64-52.61C887.33332 828.49 954.95332 685 942.80332 530.65 926.83332 327.54 765.41332 160.18 563.00332 136.87 301.98332 106.81 79.79332 311.01 79.79332 566.13c0 81.51 22.31 159.56 64.81 227.83 10.86 17.45 6.34 40.29-10.15 52.56-18.72 13.93-45.53 8.97-57.85-10.85C23.05332 749.55-3.36668 650.32 0.34332 547.03 9.29332 298.12 201.01332 88.02 448.27332 58.01 758.93332 20.3 1024.00332 262.84 1024.00332 566.13c0 166.61-78.48 318.78-211.97 414.98-18.86 13.59-45.45 7.91-57.46-12z" fill="#2c2c2c" p-id="4062"></path><path d="M337.68332 530.7c-22.63 0-40.97-18.34-40.97-40.97v-42.17c0-22.63 18.34-40.97 40.97-40.97s40.97 18.34 40.97 40.97v42.17c0 22.63-18.35 40.97-40.97 40.97zM499.95332 530.7c-22.63 0-40.97-18.34-40.97-40.97v-42.17c0-22.63 18.34-40.97 40.97-40.97s40.97 18.34 40.97 40.97v42.17c0.01 22.63-18.34 40.97-40.97 40.97zM416.59332 718.29c-23.98 0-55.5-12.13-80.95-25.75-20.27-10.85-24.3-38.15-8.04-54.41 10.72-10.72 27.21-13.19 40.49-5.88 15.2 8.36 35.34 17.65 49.75 17.65 17.71 0 34.71-4.67 49.59-13.42 13.16-7.74 29.93-5.15 40.72 5.64l1.77 1.77c15.47 15.47 13.04 41.92-5.75 53.14-25.83 15.43-56.7 21.26-87.58 21.26z" fill="#2c2c2c" p-id="4063"></path></svg>