<?xml version="1.0" standalone="no"?><!DOCTYPE svg PUBLIC "-//W3C//DTD SVG 1.1//EN" "http://www.w3.org/Graphics/SVG/1.1/DTD/svg11.dtd"><svg t="1699898880546" class="icon" viewBox="0 0 1024 1024" version="1.1" xmlns="http://www.w3.org/2000/svg" p-id="1188" xmlns:xlink="http://www.w3.org/1999/xlink" width="200" height="200"><path d="M296.96 943.9744a103.9872 103.9872 0 0 1-102.4-121.4976l28.0576-163.4816a42.3936 42.3936 0 0 0-12.1856-37.5296L91.8528 505.7024a103.8848 103.8848 0 0 1 57.5488-177.152l164.1472-23.8592A42.496 42.496 0 0 0 345.4976 281.6l73.3696-148.48a103.8336 103.8336 0 0 1 186.2656 0l73.4208 148.48a42.3936 42.3936 0 0 0 31.8976 23.1936l164.1472 23.8592a103.8848 103.8848 0 0 1 57.5488 177.152l-118.7328 115.7632a42.2912 42.2912 0 0 0-12.2368 37.5296l28.2624 163.3792A103.8336 103.8336 0 0 1 678.5536 931.84l-146.7904-76.8a42.3936 42.3936 0 0 0-39.4752 0l-146.8416 76.8a103.9872 103.9872 0 0 1-48.4864 12.1344z m215.04-807.68a41.6768 41.6768 0 0 0-38.0416 23.6544L400.5888 308.6848A104.0384 104.0384 0 0 1 322.56 365.5168L158.2592 389.12a42.3936 42.3936 0 0 0-23.5008 72.3456l118.7328 115.7632a104.0384 104.0384 0 0 1 29.9008 92.16l-28.0576 163.4304a42.3936 42.3936 0 0 0 61.44 44.7488l146.7904-77.2096a103.936 103.936 0 0 1 96.6656 0l146.7904 77.2096a42.4448 42.4448 0 0 0 61.44-44.7488l-28.0576-163.4304a104.0384 104.0384 0 0 1 29.9008-92.16l118.7328-115.7632A42.3936 42.3936 0 0 0 865.7408 389.12L701.44 365.5168a103.8848 103.8848 0 0 1-78.1824-56.832l-73.4208-148.48a41.6256 41.6256 0 0 0-37.8368-23.9104z" fill="#2c2c2c" p-id="1189"></path><path d="M414.72 694.272h-3.5328a30.72 30.72 0 0 1-27.0336-34.048l7.0144-60.5184a33.8944 33.8944 0 0 0-10.24-28.1088l-42.5472-40.96A30.72 30.72 0 1 1 381.184 486.4l42.5984 40.96a95.6416 95.6416 0 0 1 28.6208 79.5136L445.44 667.0336a30.72 30.72 0 0 1-30.72 27.2384z" fill="#2c2c2c" p-id="1190"></path></svg>