<?xml version="1.0" standalone="no"?><!DOCTYPE svg PUBLIC "-//W3C//DTD SVG 1.1//EN" "http://www.w3.org/Graphics/SVG/1.1/DTD/svg11.dtd"><svg t="1695110768789" class="icon" viewBox="0 0 1024 1024" version="1.1" xmlns="http://www.w3.org/2000/svg" p-id="4150" xmlns:xlink="http://www.w3.org/1999/xlink" width="200" height="200"><path d="M505.386133 0.812089a0.868983 0.868983 0 0 0-1.736102 0 0.867119 0.867119 0 1 0 1.736102 0z" p-id="4151"></path><path d="M948.045553 509.121716c8.943443 5.764008 14.832391 15.811396 14.832391 27.254566-0.035431 11.402144-5.984051 21.455127-14.957331 27.189298L514.99157 840.235176c-9.623152 6.134165-22.231804 6.998487-32.957969 1.108607-10.733624-5.887083-16.807184-16.957298-16.807184-28.393008V648.288668L92.660023 846.710595c-9.679096 5.147701-21.765611 5.23721-31.878266-0.83635-10.078157-6.041859-15.692983-16.736323-15.692983-27.714232V251.472787c0-11.008678 5.64373-21.736707 15.756385-27.775769 10.142491-6.042792 22.260708-5.918784 31.939803-0.709545l372.440523 200.395787V256.746361c0-11.467411 6.108059-22.571192 16.867789-28.423777a32.295042 32.295042 0 0 1 33.018574 1.229816l432.933705 279.569316z m0 0" p-id="4152"></path></svg>