<?xml version="1.0" standalone="no"?><!DOCTYPE svg PUBLIC "-//W3C//DTD SVG 1.1//EN" "http://www.w3.org/Graphics/SVG/1.1/DTD/svg11.dtd"><svg t="1695110776129" class="icon" viewBox="0 0 1024 1024" version="1.1" xmlns="http://www.w3.org/2000/svg" p-id="4290" xmlns:xlink="http://www.w3.org/1999/xlink" width="200" height="200"><path d="M505.27776 0.812089a0.868983 0.868983 0 0 0-1.736102 0 0.867119 0.867119 0 1 0 1.736102 0z" p-id="4291"></path><path d="M60.88317 560.973548c-8.943443-5.764008-14.832391-15.811396-14.832391-27.253633 0.035431-11.403077 5.983119-21.455127 14.957331-27.190231l432.929975-276.669596c9.623152-6.134165 22.230871-6.998487 32.957036-1.108607 10.734556 5.887083 16.807184 16.956366 16.807184 28.393941v164.663038l372.566395-198.421926c9.679096-5.148634 21.766543-5.238143 31.878266 0.835417 10.078157 6.042792 15.692051 16.737255 15.692051 27.714232V818.623409c0 11.008678-5.64373 21.736707-15.755453 27.775769-10.143424 6.041859-22.26164 5.918784-31.940736 0.708613L543.702305 646.712004v166.636899c0 11.468344-6.108059 22.571192-16.866856 28.42471a32.298772 32.298772 0 0 1-33.018574-1.229817L60.88317 560.973548z m0 0" p-id="4292"></path></svg>