<?xml version="1.0" standalone="no"?><!DOCTYPE svg PUBLIC "-//W3C//DTD SVG 1.1//EN" "http://www.w3.org/Graphics/SVG/1.1/DTD/svg11.dtd"><svg t="1695625739166" class="icon" viewBox="0 0 1024 1024" version="1.1" xmlns="http://www.w3.org/2000/svg" p-id="6602" xmlns:xlink="http://www.w3.org/1999/xlink" width="200" height="200"><path d="M909.587305 114.459082l-306.586826 760.335329-96.063872-273.884231v-2.043913l-2.043912-2.043912c-14.307385-34.746507-42.922156-59.273453-79.712575-71.536926L151.295888 447.616766 909.587305 114.459082M977.036407 0c-6.131737 0-12.263473 2.043912-18.395209 4.087824l-929.98004 408.782435c-38.834331 16.351297-34.746507 73.580838 4.087824 85.844312l369.948104 104.239521c12.263473 4.087824 22.483034 14.307385 28.61477 26.570858l128.766467 365.86028c8.175649 18.39521 24.526946 28.61477 42.922156 28.61477s34.746507-10.219561 42.922156-28.61477L1017.914651 63.361277c14.307385-32.702595-12.263473-63.361277-40.878244-63.361277z" p-id="6603"></path></svg>