<?xml version="1.0" standalone="no"?><!DOCTYPE svg PUBLIC "-//W3C//DTD SVG 1.1//EN" "http://www.w3.org/Graphics/SVG/1.1/DTD/svg11.dtd"><svg t="1695110562114" class="icon" viewBox="0 0 1099 1024" version="1.1" xmlns="http://www.w3.org/2000/svg" p-id="4944" xmlns:xlink="http://www.w3.org/1999/xlink" width="214.6484375" height="200"><path d="M1052.183486 173.485015H433.399388c-25.051988 0-45.719878-20.66789-45.719877-45.719877s20.66789-45.719878 45.719877-45.719878H1052.183486c25.051988 0 45.719878 20.66789 45.719878 45.719878s-20.66789 45.719878-45.719878 45.719877zM32.567584 0.6263c6.889297 0 13.778593 2.505199 19.415291 6.262997l127.765137 95.823853c8.141896 6.262997 12.525994 15.657492 12.525994 25.678287 0 10.020795-5.010398 19.415291-12.525994 25.678288L51.356575 249.893578c-9.394495 7.515596-22.546789 8.141896-33.820184 3.131498-10.647095-5.636697-17.536391-16.283792-17.536391-28.809785V32.567584C0.6263 15.031193 15.031193 0.6263 32.567584 0.6263zM1052.183486 593.10581H45.719878c-25.051988 0-45.719878-20.66789-45.719878-45.719877s20.66789-45.719878 45.719878-45.719878H1052.183486c25.051988 0 45.719878 20.66789 45.719878 45.719878s-20.66789 45.719878-45.719878 45.719877zM1052.183486 1024H45.719878c-25.051988 0-45.719878-20.66789-45.719878-45.719878s20.66789-45.719878 45.719878-45.719877H1052.183486c25.051988 0 45.719878 20.66789 45.719878 45.719877s-20.66789 45.719878-45.719878 45.719878z" p-id="4945"></path></svg>