<?xml version="1.0" standalone="no"?><!DOCTYPE svg PUBLIC "-//W3C//DTD SVG 1.1//EN" "http://www.w3.org/Graphics/SVG/1.1/DTD/svg11.dtd"><svg t="1698734827011" class="icon" viewBox="0 0 1024 1024" version="1.1" xmlns="http://www.w3.org/2000/svg" p-id="3622" xmlns:xlink="http://www.w3.org/1999/xlink" width="200" height="200"><path d="M79.619558 551.918154l476.489099 341.887251c29.008396 18.785014 67.77055 9.609257 67.77055-46.095534v-147.064983l269.203697 193.124392c29.008396 18.785014 66.903549 10.404008 67.806675-46.890285V175.278628c0.903126-63.507797-36.197277-62.965921-67.806675-46.095533L623.879207 322.307486v-148.835109c0-65.205673-36.197277-61.195795-67.77055-44.289282l-476.489099 341.9595c-22.000141 22.253016-22.000141 58.450293 0 80.775559z m825.13173 273.755451l-336.974247-235.571298v235.571298L118.490087 511.530375l449.250829-314.21548v235.643547l336.974247-235.643547c0.036125 50.177662 0.036125 615.281451 0.036125 628.35871z" fill="#231815" p-id="3623"></path></svg>