<?xml version="1.0" standalone="no"?><!DOCTYPE svg PUBLIC "-//W3C//DTD SVG 1.1//EN" "http://www.w3.org/Graphics/SVG/1.1/DTD/svg11.dtd"><svg t="1698734811135" class="icon" viewBox="0 0 1024 1024" version="1.1" xmlns="http://www.w3.org/2000/svg" p-id="3160" xmlns:xlink="http://www.w3.org/1999/xlink" width="200" height="200"><path d="M927.871305 540.900021l-168.053623 135.8301c-11.018133 10.837508-29.008396 10.837508-40.02653 0a27.115445 27.115445 0 0 1 0-38.978904l145.619982-117.767586-145.619982-117.695336a27.202145 27.202145 0 0 1 0-39.051154c11.018133-10.765258 29.008396-10.765258 40.02653 0l168.053623 135.8301c5.888379 5.780004 8.344881 13.43851 8.019755 20.91639 0.325125 7.586256-2.167502 15.208636-8.019755 20.91639z m-557.987159 323.391237c-7.839131 13.14951-20.302265 15.280886-38.328653 10.042757-14.847386-4.262753-18.062513-24.384393-10.331758-37.533902L671.925492 161.117618c7.730756-13.14951 24.926268-17.701263 38.328653-10.151132 13.43851 7.658506 17.954138 24.456643 10.223383 37.642277l-350.593382 675.682495z m-59.678544-187.561137c-11.018133 10.837508-28.900021 10.837508-39.954279 0l-168.125873-135.8301c-5.888379-5.707754-8.344881-13.330135-8.019756-20.91639-0.36125-7.47788 2.131377-15.136386 8.019756-20.91639l168.125873-135.8301c11.018133-10.765258 28.900021-10.765258 39.954279 0a27.014295 27.014295 0 0 1 0 39.051154l-145.619981 117.695336 145.619981 117.767586c11.126508 10.801383 11.126508 28.213646 0 38.978904z" fill="#231815" p-id="3161"></path></svg>