<?xml version="1.0" standalone="no"?><!DOCTYPE svg PUBLIC "-//W3C//DTD SVG 1.1//EN" "http://www.w3.org/Graphics/SVG/1.1/DTD/svg11.dtd"><svg t="1698734761062" class="icon" viewBox="0 0 1024 1024" version="1.1" xmlns="http://www.w3.org/2000/svg" p-id="1883" xmlns:xlink="http://www.w3.org/1999/xlink" width="200" height="200"><path d="M805.913215 512.4335l117.081211 117.081211c12.643759 12.643759 13.79976 31.934523 2.673252 43.133282-11.198758 11.198758-30.525647 9.970507-43.133282-2.673252l-117.08121-117.081211-117.081211 117.081211c-12.643759 12.643759-31.934523 13.87201-43.133282 2.673252-11.198758-11.198758-9.970507-30.525647 2.673252-43.133282l116.972836-117.081211-116.972836-117.08121c-12.643759-12.643759-13.87201-31.934523-2.673252-43.133282 11.198758-11.126508 30.525647-9.970507 43.133282 2.673252l117.081211 117.081211 117.08121-117.081211c12.643759-12.643759 31.934523-13.79976 43.133282-2.673252 11.126508 11.198758 9.970507 30.525647-2.673252 43.133282l-117.081211 117.08121zM484.83398 175.820504L232.392295 344.127002h-84.171311c-30.959148 0-56.066041 25.070768-56.066042 56.138291v224.372539c0 31.031398 25.070768 56.138291 56.066042 56.138292h84.171311l252.47781 168.306498c31.067523 0 56.138291-25.070768 56.138291-56.138291V231.958795c-0.036125-31.067523-25.106893-56.138291-56.174416-56.138291zM232.392295 596.604812c0 15.497636-12.535384 28.033021-28.03302 28.03302h-28.033021c-15.461511 0-28.105271-12.535384-28.10527-28.03302v-168.306498c0-15.461511 12.643759-28.033021 28.10527-28.033021h28.033021a28.033021 28.033021 0 0 1 28.03302 28.033021v168.306498z m252.441685 196.339519l-196.339519-122.68059V354.639385l196.339519-122.68059V792.944331z" fill="#231815" p-id="1884"></path></svg>