<?xml version="1.0" standalone="no"?><!DOCTYPE svg PUBLIC "-//W3C//DTD SVG 1.1//EN" "http://www.w3.org/Graphics/SVG/1.1/DTD/svg11.dtd"><svg t="1698734815874" class="icon" viewBox="0 0 1024 1024" version="1.1" xmlns="http://www.w3.org/2000/svg" p-id="3314" xmlns:xlink="http://www.w3.org/1999/xlink" width="200" height="200"><path d="M821.302477 959.480703h-56.029916c-31.031398 0-56.138291-25.070768-56.138292-56.029916V566.801665c0-31.067523 25.070768-56.138291 56.138292-56.138291h56.029916c31.031398 0 56.138291 25.070768 56.138291 56.138291v336.649122c0 30.959148-25.106893 56.029916-56.138291 56.029916z m0-364.646017c0-15.497636-12.535384-28.033021-28.033021-28.033021-15.497636 0-28.033021 12.535384-28.033021 28.033021v280.474705c0 15.497636 12.535384 28.105271 28.033021 28.105271 15.497636 0 28.033021-12.643759 28.033021-28.105271v-280.474705zM540.791646 959.480703h-56.138291c-30.959148 0-56.138291-25.070768-56.138291-56.029916V117.912086c0-30.959148 25.179143-56.029916 56.138291-56.029916h56.138291c30.959148 0 56.138291 25.070768 56.138291 56.029916v785.538701c0 30.959148-25.179143 56.029916-56.138291 56.029916z m0-813.463346c0-15.569886-12.535384-28.105271-28.03302-28.105271-15.569886 0-28.105271 12.535384-28.105271 28.105271V875.309391c0 15.497636 12.535384 28.105271 28.105271 28.105271 15.461511 0 28.033021-12.643759 28.03302-28.105271V146.017357zM260.208566 959.480703H204.17865c-31.031398 0-56.138291-25.070768-56.138292-56.029916V370.389896c0-30.959148 25.070768-56.029916 56.138292-56.029916h56.029916c31.031398 0 56.138291 25.070768 56.138291 56.029916v533.060891c0 30.959148-25.106893 56.029916-56.138291 56.029916z m0-560.985536c0-15.569886-12.535384-28.105271-28.033021-28.105271-15.497636 0-28.033021 12.535384-28.03302 28.105271V875.309391c0 15.497636 12.535384 28.105271 28.03302 28.105271 15.497636 0 28.033021-12.643759 28.033021-28.105271V398.495167z" fill="#231815" p-id="3315"></path></svg>