<?xml version="1.0" standalone="no"?><!DOCTYPE svg PUBLIC "-//W3C//DTD SVG 1.1//EN" "http://www.w3.org/Graphics/SVG/1.1/DTD/svg11.dtd"><svg t="1699256644560" class="icon" viewBox="0 0 1024 1024" version="1.1" xmlns="http://www.w3.org/2000/svg" p-id="1608" xmlns:xlink="http://www.w3.org/1999/xlink" width="200" height="200"><path d="M919.2 148.4H104.8c-22.1 0-40 17.9-40 40v645c0 22.1 17.9 40 40 40h814.5c22.1 0 40-17.9 40-40v-645c-0.1-22.1-18-40-40.1-40z m-40 645H144.8v-565h734.5v565z" p-id="1609"></path><path d="M368.7 687.9c6.2 3.6 13.1 5.4 20 5.4s13.8-1.8 20-5.4l246.6-142.4c12.4-7.1 20-20.4 20-34.6 0-14.3-7.6-27.5-20-34.6L408.7 333.9c-12.4-7.1-27.6-7.1-40 0-12.4 7.1-20 20.4-20 34.6v284.7c0 14.4 7.6 27.6 20 34.7z m60-250.1l126.6 73.1L428.7 584V437.8z" p-id="1610"></path></svg>