<?xml version="1.0" standalone="no"?><!DOCTYPE svg PUBLIC "-//W3C//DTD SVG 1.1//EN" "http://www.w3.org/Graphics/SVG/1.1/DTD/svg11.dtd"><svg t="1698734781137" class="icon" viewBox="0 0 1024 1024" version="1.1" xmlns="http://www.w3.org/2000/svg" p-id="2840" xmlns:xlink="http://www.w3.org/1999/xlink" width="200" height="200"><path d="M819.857475 847.095745v30.886898c0 15.569886-12.535384 28.105271-28.03302 28.105271-15.497636 0-28.033021-12.535384-28.033021-28.105271v-30.886898c-64.049672-13.00501-112.276582-69.576801-112.276582-137.455725 0-67.806675 48.22691-124.378466 112.276582-137.455726V148.654484c0-15.461511 12.535384-28.105271 28.033021-28.105271 15.497636 0 28.033021 12.643759 28.03302 28.105271v423.52981c64.049672 13.07726 112.276582 69.649051 112.276583 137.455726-0.036125 67.878925-48.22691 124.450716-112.276583 137.455725z m-28.03302-221.590912c-46.529034 0-84.171312 37.714528-84.171312 84.171312 0 46.529034 37.642278 84.135187 84.171312 84.135186 46.456784 0 84.171312-37.642278 84.171312-84.135186-0.036125-46.456784-37.750653-84.171312-84.171312-84.171312z m-252.47781-171.088125v423.565935c0 15.569886-12.535384 28.105271-28.033021 28.105271-15.569886 0-28.105271-12.535384-28.10527-28.105271V454.416708c-63.977422-13.07726-112.168207-69.649051-112.168207-137.455726 0-67.878925 48.22691-124.450716 112.168207-137.455726v-30.886897c0-15.461511 12.535384-28.105271 28.10527-28.105271 15.461511 0 28.033021 12.643759 28.033021 28.105271v30.886897c63.977422 12.968884 112.168207 69.576801 112.168207 137.455726 0 67.806675-48.190785 124.378466-112.168207 137.455726z m-28.033021-221.590912c-46.529034 0-84.171312 37.642278-84.171311 84.171311 0 46.456784 37.642278 84.171312 84.171311 84.171312 46.420659 0 84.171312-37.714528 84.171312-84.171312 0-46.565159-37.714528-84.171312-84.171312-84.171311zM258.763565 734.927538v143.055105c0 15.569886-12.535384 28.105271-28.033021 28.105271s-28.033021-12.535384-28.033021-28.105271v-143.055105c-64.049672-13.00501-112.276582-69.576801-112.276582-137.455725 0-67.878925 48.22691-124.450716 112.276582-137.455726V148.654484c0-15.461511 12.535384-28.105271 28.033021-28.105271s28.033021 12.643759 28.033021 28.105271v311.361603c64.049672 12.968884 112.276582 69.576801 112.276582 137.455726 0 67.878925-48.22691 124.450716-112.276582 137.455725z m-28.033021-221.627037c-46.456784 0-84.171312 37.714528-84.171312 84.171312 0 46.529034 37.714528 84.171312 84.171312 84.171311 46.529034 0 84.171312-37.642278 84.171312-84.171311 0-46.456784-37.642278-84.171312-84.171312-84.171312z" fill="#231815" p-id="2841"></path></svg>