<?xml version="1.0" standalone="no"?><!DOCTYPE svg PUBLIC "-//W3C//DTD SVG 1.1//EN" "http://www.w3.org/Graphics/SVG/1.1/DTD/svg11.dtd"><svg t="1699256665331" class="icon" viewBox="0 0 1024 1024" version="1.1" xmlns="http://www.w3.org/2000/svg" p-id="1902" xmlns:xlink="http://www.w3.org/1999/xlink" width="200" height="200"><path d="M926.1 337.9c-22.6-53.4-54.9-101.3-96.1-142.5-41.2-41.2-89.1-73.5-142.5-96.1C632.2 76 573.5 64.1 513 64.1S393.8 76 338.5 99.3c-53.4 22.6-101.3 54.9-142.5 96.1-41.2 41.2-73.5 89.1-96.1 142.5-23.4 55.3-35.2 114-35.2 174.5S76.6 631.6 100 686.9c22.6 53.4 54.9 101.3 96.1 142.5 41.2 41.2 89.1 73.5 142.5 96.1 55.3 23.4 114 35.2 174.5 35.2s119.2-11.9 174.5-35.2c53.4-22.6 101.3-54.9 142.5-96.1 41.2-41.2 73.5-89.1 96.1-142.5 23.4-55.3 35.2-114 35.2-174.5s-12-119.2-35.3-174.5zM513 880.7c-203.1 0-368.3-165.2-368.3-368.3 0-203.1 165.2-368.3 368.3-368.3s368.3 165.2 368.3 368.3c0 203.1-165.2 368.3-368.3 368.3z" p-id="1903"></path><path d="M469.58133 737.9217a61.4 61.4 0 1 0 86.831198-86.834228 61.4 61.4 0 1 0-86.831198 86.834228Z" p-id="1904"></path><path d="M513 596.2c22.1 0 40-17.9 40-40V269c0-22.1-17.9-40-40-40s-40 17.9-40 40v287.2c0 22.1 17.9 40 40 40z" p-id="1905"></path></svg>