<?xml version="1.0" standalone="no"?><!DOCTYPE svg PUBLIC "-//W3C//DTD SVG 1.1//EN" "http://www.w3.org/Graphics/SVG/1.1/DTD/svg11.dtd"><svg t="1698734795733" class="icon" viewBox="0 0 1024 1024" version="1.1" xmlns="http://www.w3.org/2000/svg" p-id="3000" xmlns:xlink="http://www.w3.org/1999/xlink" width="200" height="200"><path d="M684.418669 175.597559L431.949765 343.89812h-84.168342c-30.958056 0-56.136311 25.069884-56.136311 56.13631v224.364625c0 31.030303 25.178255 56.136311 56.136311 56.13631h84.168342l252.468904 168.300561c30.958056 0 56.136311-25.069884 56.13631-56.136311V231.73387c0-31.030303-25.178255-56.136311-56.13631-56.136311z m-252.468904 420.769464c0 15.49709-12.534942 28.032032-28.032031 28.032032h-28.104279c-15.49709 0-28.032032-12.534942-28.032032-28.032032V428.066462a28.032032 28.032032 0 0 1 28.032032-28.032032h28.104279a28.032032 28.032032 0 0 1 28.032031 28.032032v168.300561z m252.468904 196.332592l-196.332593-122.676262V354.410132l196.332593-122.676262v560.965745z" fill="#231815" p-id="3001"></path></svg>